<?xml version="1.0" standalone="no"?>
<!DOCTYPE svg PUBLIC "-//W3C//DTD SVG 20010904//EN"
 "http://www.w3.org/TR/2001/REC-SVG-20010904/DTD/svg10.dtd">
<svg version="1.0" xmlns="http://www.w3.org/2000/svg"
 width="420.000000pt" height="392.000000pt" viewBox="0 0 420.000000 392.000000"
 preserveAspectRatio="xMidYMid meet">

<g transform="translate(0.000000,392.000000) scale(0.100000,-0.100000)"
fill="#000000" stroke="none">
<path d="M786 3887 c-22 -22 -26 -23 -50 -10 -44 23 -68 13 -93 -37 -40 -79
-29 -182 29 -263 40 -56 49 -95 30 -133 -18 -39 -20 -40 -66 -17 -29 14 -38
14 -51 3 -35 -29 -14 -53 93 -108 110 -57 142 -61 142 -16 0 18 -9 29 -35 41
-40 19 -41 21 -19 66 13 28 24 35 68 45 28 7 72 12 96 12 61 1 117 28 168 83
55 61 57 99 7 128 -30 18 -33 24 -24 40 20 38 0 57 -126 123 -68 36 -129 66
-135 66 -6 0 -21 -11 -34 -23z m-63 -69 c15 -12 14 -19 -8 -93 -22 -77 -24
-79 -34 -52 -14 36 -14 85 0 126 12 34 18 37 42 19z m351 -181 c17 -12 16 -15
-9 -45 -27 -33 -59 -53 -104 -67 -19 -6 -14 4 30 59 29 36 55 66 59 66 3 0 14
-6 24 -13z"/>
<path d="M1786 3837 c-25 -25 -26 -31 -26 -141 0 -150 4 -155 134 -158 177 -3
176 -4 176 158 0 104 -2 115 -22 134 -15 14 -35 20 -68 20 -26 0 -74 3 -108 6
-56 6 -62 5 -86 -19z m79 -67 c0 -16 -6 -26 -18 -28 -19 -4 -32 20 -23 44 9
25 41 13 41 -16z m144 16 c15 -18 3 -46 -20 -46 -25 0 -35 26 -19 45 15 19 24
19 39 1z m-69 -92 c0 -21 -4 -25 -22 -22 -15 2 -24 11 -26 26 -3 18 1 22 22
22 21 0 26 -5 26 -26z m-73 -60 c3 -8 -1 -22 -9 -30 -19 -19 -52 3 -42 29 8
21 43 22 51 1z m138 -14 c0 -16 -6 -26 -18 -28 -19 -4 -32 20 -23 44 9 25 41
13 41 -16z"/>
<path d="M3242 3829 c-48 -24 -124 -118 -124 -153 0 -11 5 -41 12 -66 44 -173
216 -243 337 -137 73 64 90 151 52 262 -21 62 -21 62 -85 89 -78 32 -135 33
-192 5z m202 -59 c23 0 27 -3 21 -17 -5 -10 -8 -25 -8 -33 0 -8 3 -23 8 -32 6
-15 2 -18 -23 -18 -17 0 -34 -4 -37 -10 -11 -18 -35 -11 -35 10 0 11 -9 25
-20 32 -11 7 -20 18 -20 25 0 6 9 15 20 18 11 3 20 14 20 24 0 27 11 33 30 16
9 -8 29 -15 44 -15z m-214 -35 c7 -8 22 -15 35 -15 30 0 35 -8 23 -35 -7 -16
-7 -29 1 -44 11 -19 9 -21 -18 -21 -16 0 -33 -4 -36 -10 -9 -15 -35 -12 -35 5
0 8 -12 25 -26 38 l-25 24 25 17 c14 9 26 25 26 36 0 24 13 26 30 5z m240
-151 c0 -17 -14 -40 -39 -65 -34 -34 -45 -39 -84 -39 -34 0 -53 6 -76 26 -17
14 -31 29 -31 33 0 4 29 12 65 18 36 6 82 20 103 31 50 28 62 27 62 -4z"/>
<path d="M3725 3822 c-82 -53 -116 -155 -82 -250 20 -56 32 -33 32 60 l0 88
38 37 c34 34 42 38 90 38 75 0 118 -34 148 -115 12 -33 28 -60 35 -60 41 0
-18 135 -79 184 -49 39 -136 48 -182 18z"/>
<path d="M197 3815 c-121 -31 -181 -167 -126 -283 91 -187 379 -118 379 91 0
61 -14 94 -57 139 -53 55 -121 73 -196 53z m123 -47 c114 -58 123 -203 19
-281 -69 -50 -185 -23 -228 53 -51 92 -17 192 79 234 49 21 79 20 130 -6z"/>
<path d="M306 3725 c-4 -11 -13 -14 -31 -9 -18 4 -25 2 -25 -9 0 -8 7 -18 16
-21 10 -4 14 -14 11 -26 -7 -27 13 -37 29 -15 7 10 20 15 28 12 22 -9 32 14
13 28 -10 7 -14 20 -10 33 6 26 -21 32 -31 7z"/>
<path d="M169 3672 c-8 -12 -20 -17 -35 -14 -27 5 -33 -15 -8 -25 10 -4 14
-13 10 -29 -8 -29 10 -41 25 -16 8 12 20 17 35 14 27 -5 33 15 8 25 -10 4 -14
13 -10 29 8 29 -10 41 -25 16z"/>
<path d="M242 3588 c-26 -26 0 -88 36 -88 17 0 52 37 52 54 0 37 -61 61 -88
34z"/>
<path d="M2668 3809 c-165 -18 -301 -159 -315 -328 -13 -155 70 -294 217 -365
59 -28 74 -31 160 -31 82 0 103 4 152 27 79 37 142 98 181 177 29 59 32 74 32
156 0 82 -3 97 -32 156 -73 148 -224 227 -395 208z m164 -85 c61 -20 132 -83
166 -148 22 -43 27 -64 27 -131 0 -67 -5 -88 -27 -130 -27 -52 -93 -123 -104
-112 -3 3 2 42 12 87 16 76 16 82 0 98 -30 30 -49 4 -76 -109 -14 -57 -29
-110 -33 -117 -21 -31 -192 -3 -243 41 l-25 22 25 109 c26 112 25 130 -2 141
-25 9 -41 -16 -61 -99 -10 -42 -21 -79 -24 -82 -10 -10 -47 107 -47 150 0 106
60 211 148 259 89 48 163 54 264 21z"/>
<path d="M2542 3614 c-7 -3 -19 -19 -28 -36 -12 -23 -13 -33 -3 -44 16 -20 25
-18 52 11 20 22 27 24 50 16 20 -8 27 -18 27 -36 0 -30 24 -43 45 -25 22 18
18 55 -8 86 -18 21 -34 27 -73 30 -27 2 -55 1 -62 -2z"/>
<path d="M2806 3537 c-30 -30 -34 -65 -9 -74 10 -4 23 2 34 16 28 34 71 26 84
-17 7 -25 14 -32 30 -30 15 2 21 12 23 38 4 48 -30 80 -92 87 -38 5 -48 2 -70
-20z"/>
<path d="M2643 3374 c-9 -15 -17 -47 -17 -71 -1 -38 4 -49 26 -66 51 -38 100
-3 114 79 5 35 3 45 -15 63 -31 31 -86 29 -108 -5z"/>
<path d="M3761 3757 c-42 -21 -65 -62 -64 -115 1 -51 16 -92 34 -92 7 0 9 20
4 60 -7 57 -6 61 23 90 17 16 39 30 50 30 32 0 79 -46 89 -88 11 -48 39 -51
35 -4 -7 95 -97 158 -171 119z"/>
<path d="M1497 3718 l-46 -30 -46 18 c-60 22 -70 12 -49 -49 l16 -47 -31 -42
c-17 -23 -31 -46 -31 -50 0 -4 25 -8 55 -8 53 0 55 -1 87 -45 18 -24 37 -43
42 -41 5 1 17 24 26 51 16 46 19 49 68 63 29 8 52 20 52 26 0 6 -18 24 -40 39
-38 27 -40 31 -40 82 0 30 -4 56 -8 59 -4 3 -29 -9 -55 -26z m33 -61 c0 -37 4
-45 30 -61 35 -20 32 -31 -11 -40 -24 -5 -34 -14 -46 -46 l-16 -39 -21 27
c-28 37 -36 42 -74 42 l-33 0 22 31 c19 27 20 35 11 67 -6 20 -10 37 -9 39 2
1 20 -3 40 -9 33 -10 41 -9 65 10 38 29 42 28 42 -21z"/>
<path d="M2115 3738 c-2 -7 -5 -53 -7 -101 -3 -86 -4 -90 -36 -118 -22 -20
-43 -29 -67 -29 -27 0 -35 -4 -35 -18 0 -25 31 -52 59 -52 39 0 192 42 207 57
8 8 14 26 14 39 0 41 -42 198 -58 217 -17 20 -71 23 -77 5z"/>
<path d="M3782 3684 c-22 -15 -28 -47 -16 -92 11 -38 39 -23 39 20 0 46 16 52
30 12 11 -34 26 -47 38 -35 14 14 -11 79 -36 96 -27 19 -27 19 -55 -1z"/>
<path d="M3712 3428 c-14 -14 -16 -44 -3 -52 5 -4 -4 -55 -21 -117 -26 -98
-28 -113 -15 -132 13 -20 230 -123 267 -128 40 -4 52 6 107 96 33 54 65 95 74
95 37 0 53 52 21 69 -21 11 -52 -3 -52 -23 0 -25 -94 -37 -103 -13 -13 34 -18
125 -8 131 19 12 13 54 -9 61 -24 8 -50 -10 -50 -35 0 -20 -80 -80 -108 -80
-22 0 -67 66 -51 75 16 10 10 44 -10 55 -24 13 -24 13 -39 -2z"/>
<path d="M1070 3326 c-109 -29 -211 -103 -270 -196 -91 -142 -94 -354 -7 -502
31 -54 130 -149 183 -176 126 -64 288 -70 407 -15 76 36 166 116 204 181 89
151 84 357 -11 506 -107 166 -322 252 -506 202z m292 -203 c34 -31 50 -70 38
-93 -16 -31 -46 -24 -69 15 -14 25 -27 35 -44 35 -35 0 -51 -25 -52 -78 0 -37
-4 -47 -18 -50 -67 -13 -74 130 -9 177 48 34 113 31 154 -6z m-274 -98 c38
-32 55 -77 38 -100 -17 -24 -48 -15 -64 18 -17 35 -56 45 -82 22 -15 -13 -19
-29 -17 -64 2 -40 -1 -46 -20 -49 -46 -7 -69 78 -38 138 32 62 129 81 183 35z
m392 -140 c19 -23 7 -123 -23 -182 -50 -99 -139 -152 -252 -153 -84 0 -150 27
-207 85 -42 42 -48 69 -20 86 26 16 454 177 473 178 9 1 22 -6 29 -14z"/>
<path d="M3280 3280 c-22 -47 -26 -50 -76 -60 -30 -6 -56 -15 -58 -19 -3 -4
12 -27 33 -51 37 -43 37 -44 28 -97 -5 -30 -6 -57 -2 -61 3 -4 29 5 57 20 l50
27 48 -24 c26 -13 50 -21 54 -18 4 4 4 32 0 62 -5 54 -4 58 30 98 20 22 36 46
36 51 0 6 -24 14 -54 17 -54 7 -55 8 -76 56 -11 27 -26 49 -34 49 -7 0 -23
-22 -36 -50z"/>
<path d="M2095 3218 c-62 -70 -71 -89 -95 -199 -27 -125 -26 -131 19 -172 41
-37 83 -53 164 -64 46 -6 48 -5 60 26 6 17 17 31 24 31 8 0 19 12 26 27 6 15
22 37 35 50 24 24 26 31 13 52 -7 10 -4 22 9 38 22 28 16 61 -14 73 -11 5 -56
16 -98 25 l-77 17 24 36 c30 44 33 87 6 102 -34 18 -48 11 -96 -42z"/>
<path d="M169 3171 c-36 -36 -37 -74 -5 -152 32 -78 63 -119 90 -119 30 0 135
63 169 102 45 53 35 124 -22 148 -24 9 -35 9 -58 -2 -26 -13 -30 -12 -59 19
-40 42 -75 43 -115 4z m91 -21 c11 -11 20 -26 20 -34 0 -26 20 -28 55 -6 33
21 37 21 60 6 56 -36 21 -103 -84 -159 -44 -25 -54 -27 -68 -15 -23 19 -73
128 -73 161 0 29 31 67 55 67 8 0 24 -9 35 -20z"/>
<path d="M1860 3158 c-5 -13 -21 -81 -36 -151 -19 -91 -24 -131 -16 -139 5 -5
30 -13 55 -15 52 -6 45 -19 82 146 34 153 34 158 -12 170 -54 15 -62 14 -73
-11z"/>
<path d="M2793 2956 c-23 -8 -62 -25 -86 -38 -25 -14 -62 -29 -83 -33 -55 -10
-89 -30 -121 -72 l-28 -36 1 -191 c0 -174 2 -196 23 -248 32 -83 102 -170 172
-217 189 -126 420 -102 574 60 101 105 152 264 128 396 -6 35 -7 67 -2 81 15
39 10 86 -13 132 -27 53 -72 86 -131 95 -23 4 -56 16 -73 26 -65 39 -143 59
-233 58 -47 0 -105 -6 -128 -13z m-98 -174 c29 -18 31 -18 60 0 69 42 135 5
135 -76 0 -54 -40 -111 -113 -164 -45 -32 -50 -34 -75 -21 -49 25 -130 114
-141 154 -25 92 54 156 134 107z m399 -3 c25 -20 28 -20 45 -5 45 40 134 23
147 -30 17 -68 -22 -139 -110 -203 -56 -40 -68 -37 -143 31 -84 77 -103 163
-46 208 33 26 73 25 107 -1z m-339 -414 c92 -19 249 -19 336 1 38 9 76 13 84
10 58 -22 -60 -169 -164 -204 -45 -16 -137 -14 -184 2 -77 28 -167 126 -167
183 0 27 4 27 95 8z"/>
<path d="M3730 2905 c-101 -32 -180 -138 -180 -241 0 -103 51 -190 142 -239
44 -24 65 -29 123 -30 59 0 78 5 124 30 68 37 107 85 128 154 59 202 -136 391
-337 326z m139 -45 c95 -27 155 -107 156 -205 0 -78 -26 -130 -88 -172 -79
-53 -169 -53 -248 0 -46 31 -89 116 -89 176 1 138 136 239 269 201z"/>
<path d="M3704 2775 c-8 -13 -13 -29 -9 -35 9 -15 32 -12 39 6 4 9 15 14 28
12 19 -2 23 -8 20 -36 -2 -26 2 -32 17 -32 20 0 31 18 31 51 0 55 -95 82 -126
34z"/>
<path d="M3855 2706 c-9 -14 -14 -30 -10 -36 9 -15 32 -12 39 6 3 9 15 14 28
12 18 -2 23 -9 23 -33 0 -40 32 -47 41 -9 12 46 -14 78 -63 82 -35 3 -44 -1
-58 -22z"/>
<path d="M3774 2638 c-4 -6 0 -16 9 -23 26 -19 21 -38 -7 -31 -33 8 -44 -12
-17 -30 26 -19 17 -38 -14 -30 -34 9 -40 -10 -11 -29 29 -19 66 -17 76 5 4 8
15 29 24 47 22 43 20 58 -10 82 -30 24 -40 26 -50 9z"/>
<path d="M219 2810 c-119 -36 -203 -175 -179 -300 12 -62 21 -80 68 -132 161
-178 462 -64 462 177 0 148 -118 265 -265 264 -33 0 -72 -4 -86 -9z m215 -151
c30 -24 35 -59 8 -59 -9 0 -23 9 -30 20 -15 25 -40 26 -49 3 -4 -10 -11 -21
-17 -25 -32 -21 -36 44 -4 66 31 22 60 20 92 -5z m-194 -14 c19 -23 8 -50 -20
-50 -19 0 -26 6 -28 24 -5 35 26 53 48 26z m225 -135 c10 -17 -34 -84 -72
-110 -51 -35 -126 -34 -180 2 -40 26 -79 89 -68 108 8 13 312 13 320 0z"/>
<path d="M1921 2653 c-65 -23 -136 -98 -155 -164 -20 -67 -20 -94 1 -158 69
-214 366 -247 480 -53 24 41 28 57 28 127 0 58 -5 89 -19 115 -26 49 -74 98
-121 122 -53 28 -155 33 -214 11z m184 -52 c158 -71 167 -298 16 -378 -57 -30
-145 -31 -200 -3 -87 44 -137 153 -111 243 35 126 177 192 295 138z"/>
<path d="M1915 2540 c-3 -5 -1 -19 6 -31 11 -21 0 -38 -23 -39 -5 0 -8 -7 -8
-16 0 -14 8 -16 53 -10 65 9 76 19 51 47 -31 35 -72 60 -79 49z"/>
<path d="M2083 2463 c-33 -6 -28 -24 17 -68 32 -31 41 -35 45 -22 4 8 2 24 -4
35 -8 16 -6 21 14 30 53 25 7 40 -72 25z"/>
<path d="M1901 2354 c-46 -39 -40 -50 30 -57 41 -4 73 -13 99 -31 49 -33 60
-33 60 -1 0 95 -117 150 -189 89z"/>
<path d="M696 2473 c-3 -3 -6 -30 -6 -59 0 -49 -3 -55 -35 -80 -46 -35 -45
-52 4 -60 52 -8 58 -14 74 -59 8 -21 18 -40 24 -42 6 -2 22 16 37 41 24 40 30
45 76 51 27 4 52 10 55 14 2 4 -10 25 -27 45 -30 37 -31 39 -19 88 6 28 9 53
6 56 -3 3 -26 -4 -51 -16 l-46 -23 -43 25 c-23 14 -45 22 -49 19z"/>
<path d="M3740 2326 c-77 -17 -128 -46 -183 -105 -71 -76 -91 -127 -92 -236 0
-82 3 -96 33 -157 18 -36 51 -82 73 -103 44 -39 124 -80 176 -91 l32 -6 -27
66 c-20 50 -36 72 -64 91 -60 41 -51 60 33 74 94 15 171 43 242 87 73 45 86
38 68 -40 -10 -46 -10 -60 3 -91 9 -21 16 -49 16 -64 1 -26 1 -26 35 13 109
124 98 343 -25 466 -50 50 -146 96 -215 103 -27 3 -75 0 -105 -7z m211 -185
c52 -52 26 -133 -47 -147 -45 -8 -94 35 -94 83 0 43 15 72 43 83 40 16 68 10
98 -19z m-202 -117 c16 -20 18 -31 10 -45 -12 -24 -18 -24 -46 3 -19 18 -27
20 -48 10 -17 -8 -25 -20 -25 -37 0 -33 -28 -45 -47 -19 -34 47 20 114 92 114
35 0 48 -5 64 -26z"/>
<path d="M3864 2095 c-9 -23 3 -45 25 -45 22 0 41 27 34 48 -6 17 -52 15 -59
-3z"/>
<path d="M1384 2273 c-24 -62 -29 -67 -78 -81 -25 -7 -46 -19 -46 -26 0 -7 18
-26 40 -41 38 -27 40 -30 40 -81 0 -63 8 -66 63 -28 38 25 38 25 88 9 28 -10
53 -14 56 -11 4 4 1 29 -6 57 -13 50 -13 51 18 93 16 24 27 46 24 50 -3 3 -28
6 -54 6 -46 0 -50 3 -81 45 -18 24 -37 44 -41 45 -4 0 -15 -17 -23 -37z m91
-77 c11 -3 30 -6 43 -6 l23 0 -24 -32 c-24 -30 -24 -33 -11 -71 13 -36 13 -39
-4 -32 -46 18 -72 17 -101 -5 l-31 -21 0 40 c0 33 -6 44 -32 65 l-32 25 29 11
c17 6 36 13 43 15 6 2 12 9 12 14 0 5 5 22 10 37 l11 28 22 -32 c12 -17 31
-33 42 -36z"/>
<path d="M644 2120 c-134 -24 -255 -90 -347 -189 -67 -73 -99 -127 -133 -227
-38 -111 -39 -253 -1 -370 141 -431 687 -563 1005 -243 275 277 226 728 -102
941 -113 73 -295 111 -422 88z m227 -126 c142 -42 252 -136 317 -271 34 -72
37 -86 40 -183 3 -88 0 -116 -18 -170 -41 -124 -133 -231 -248 -289 -58 -29
-147 -56 -140 -43 2 4 19 39 38 77 18 39 40 74 49 79 8 5 30 23 49 41 26 24
33 36 28 52 -6 17 -20 23 -79 33 -84 14 -226 59 -295 94 -27 14 -79 45 -116
70 -36 25 -73 46 -81 46 -26 0 -37 -36 -27 -91 8 -43 6 -61 -19 -131 l-28 -81
-20 34 c-60 98 -86 246 -62 360 27 130 132 273 241 329 116 60 260 77 371 44z
m-298 -655 c28 -15 37 -28 37 -55 0 -12 7 -27 15 -34 12 -10 20 -8 41 9 33 26
66 27 86 4 25 -29 26 -45 5 -103 -40 -111 -84 -145 -174 -138 -46 4 -60 10
-90 41 -31 30 -37 44 -41 89 -5 67 31 166 69 185 29 15 26 15 52 2z"/>
<path d="M532 1848 c-17 -17 -15 -33 13 -88 l25 -48 -58 -20 c-52 -17 -57 -21
-57 -48 l0 -29 125 3 c127 3 150 10 150 43 0 22 -155 199 -174 199 -6 0 -17
-5 -24 -12z"/>
<path d="M916 1631 c-45 -5 -62 -11 -73 -27 -13 -20 -9 -27 62 -110 83 -97
106 -114 130 -94 21 18 19 37 -11 87 -14 25 -24 46 -21 49 2 2 28 12 58 23 49
16 54 21 54 47 l0 29 -70 1 c-38 1 -96 -2 -129 -5z"/>
<path d="M2463 2045 c-16 -7 -34 -24 -40 -38 -11 -23 -16 -25 -53 -20 -31 4
-45 1 -61 -13 -75 -67 -22 -153 125 -203 40 -14 63 -18 76 -11 27 14 63 108
68 175 3 50 0 65 -17 86 -25 32 -59 40 -98 24z m77 -44 c5 -11 10 -36 10 -55
0 -38 -37 -147 -53 -158 -12 -7 -75 14 -129 44 -51 29 -71 65 -55 99 15 30 46
35 85 15 31 -16 42 -13 42 13 0 52 77 84 100 42z"/>
<path d="M3049 1950 c-33 -35 -58 -70 -57 -76 6 -24 152 -194 167 -194 8 0 36
20 62 46 l46 45 53 -80 c49 -75 78 -98 94 -73 5 9 -74 319 -87 340 -15 22 -41
13 -87 -33 l-46 -46 -24 51 c-13 27 -32 58 -42 67 -18 16 -22 14 -79 -47z"/>
<path d="M1813 1986 c-103 -34 -167 -89 -212 -186 l-26 -55 3 -270 c2 -148 5
-278 8 -287 7 -22 37 -23 69 -2 34 22 68 11 101 -31 34 -46 59 -44 101 5 44
51 68 51 118 0 21 -22 45 -40 51 -40 7 0 29 20 50 45 40 49 67 56 109 29 50
-33 55 -19 54 143 -1 256 -13 412 -36 465 -65 144 -248 231 -390 184z m217
-266 c34 -18 44 -48 25 -76 -17 -26 -62 -33 -83 -12 -20 20 -14 65 10 82 27
19 24 19 48 6z m-206 -13 c37 -27 13 -97 -33 -97 -23 0 -51 31 -51 56 0 45 47
68 84 41z"/>
<path d="M3897 1833 c-4 -3 -7 -15 -7 -25 0 -19 -25 -25 -35 -8 -10 16 -44 11
-54 -7 -6 -13 -3 -34 11 -71 16 -42 27 -57 55 -70 33 -16 36 -15 71 3 51 28
62 73 34 138 -16 37 -26 47 -45 47 -13 0 -27 -3 -30 -7z"/>
<path d="M2700 1708 c-257 -90 -364 -377 -232 -621 36 -66 120 -142 199 -180
63 -30 76 -32 173 -32 97 0 110 2 171 31 160 76 249 215 249 388 0 179 -87
317 -248 394 -62 29 -86 35 -160 39 -72 3 -98 0 -152 -19z m278 -93 c80 -36
152 -112 182 -193 18 -47 21 -72 18 -142 -7 -140 -67 -234 -186 -292 -59 -29
-76 -33 -152 -33 -71 0 -94 4 -141 26 -79 37 -133 90 -171 167 -30 60 -33 75
-33 157 0 78 4 98 28 146 44 91 132 163 232 190 57 15 157 4 223 -26z"/>
<path d="M2884 1530 c-37 -15 -64 -59 -64 -104 0 -50 19 -80 46 -74 16 3 19
12 19 51 0 72 46 92 87 37 37 -51 83 -31 62 28 -19 53 -95 84 -150 62z"/>
<path d="M2633 1425 c-34 -15 -63 -59 -63 -99 0 -40 18 -76 38 -76 29 0 40 19
35 59 -4 26 0 41 11 50 22 19 60 6 74 -24 13 -28 49 -34 59 -9 10 27 -10 67
-46 91 -39 26 -63 28 -108 8z"/>
<path d="M2929 1278 c-237 -96 -267 -109 -273 -125 -8 -21 36 -68 89 -96 29
-16 58 -21 106 -21 79 0 143 33 188 95 49 67 65 178 27 192 -7 3 -69 -17 -137
-45z"/>
<path d="M3595 1526 c-55 -25 -119 -90 -141 -142 -20 -48 -17 -150 5 -200 44
-97 141 -157 251 -157 78 1 126 20 185 74 121 111 110 294 -23 396 -77 59
-189 71 -277 29z m238 -62 c47 -33 97 -119 97 -168 0 -147 -142 -253 -284
-212 -91 27 -156 110 -156 200 0 86 47 160 125 198 61 29 163 20 218 -18z"/>
<path d="M3606 1377 c-24 -17 -17 -51 11 -55 30 -4 49 31 27 52 -19 19 -16 19
-38 3z"/>
<path d="M3773 1383 c-16 -6 -17 -35 -1 -51 16 -16 23 -15 42 4 12 12 13 20 6
35 -11 19 -23 22 -47 12z"/>
<path d="M3635 1253 c-33 -2 -64 -8 -68 -12 -12 -12 18 -66 45 -86 66 -46 152
-39 204 17 79 84 54 95 -181 81z"/>
<path d="M2175 1071 c-156 -38 -232 -200 -162 -343 90 -183 334 -179 430 7 62
121 -13 290 -147 330 -53 16 -74 17 -121 6z m123 -56 c103 -44 149 -160 103
-260 -70 -152 -282 -152 -352 0 -73 158 89 326 249 260z"/>
<path d="M2104 928 c-4 -6 0 -16 9 -23 10 -7 17 -24 17 -39 0 -21 5 -26 25
-26 14 0 25 4 25 9 0 5 7 8 16 7 35 -3 23 25 -22 54 -53 33 -60 35 -70 18z"/>
<path d="M2300 883 c-62 -6 -69 -16 -33 -53 32 -33 63 -33 63 1 0 13 7 19 21
19 14 0 19 5 17 17 -4 19 -9 21 -68 16z"/>
<path d="M2145 770 c-30 -12 -45 -33 -35 -50 7 -11 14 -12 35 -2 41 19 72 14
93 -13 22 -28 52 -33 52 -9 0 29 -21 56 -55 70 -38 16 -60 17 -90 4z"/>
<path d="M1425 1051 c-160 -39 -252 -199 -215 -372 14 -64 31 -82 56 -57 13
12 13 22 3 62 -28 113 13 224 105 281 42 26 59 30 115 30 130 -1 214 -79 246
-228 7 -35 33 -46 51 -23 17 24 -12 127 -53 187 -68 99 -194 148 -308 120z"/>
<path d="M1415 936 c-43 -19 -92 -78 -106 -128 -13 -49 2 -143 26 -167 13 -14
17 -14 30 0 12 12 13 24 4 74 -10 50 -9 66 4 97 29 70 122 100 188 61 28 -17
54 -62 75 -128 11 -36 47 -42 52 -8 5 32 -15 95 -41 134 -47 69 -153 99 -232
65z"/>
<path d="M140 915 c-17 -44 -11 -99 16 -171 31 -83 37 -91 76 -99 32 -7 114
11 124 27 4 6 8 41 10 79 2 52 0 71 -10 75 -8 3 -12 13 -9 23 2 9 -3 23 -11
30 -13 11 -24 10 -63 -3 -66 -23 -71 -21 -75 22 -2 30 -7 38 -25 40 -17 3 -26
-3 -33 -23z"/>
<path d="M3880 882 c-46 -42 -60 -63 -89 -135 l-34 -85 19 -34 c13 -21 42 -45
79 -65 69 -37 89 -40 107 -15 7 10 21 21 31 25 9 3 17 12 17 19 0 7 10 18 23
23 14 7 22 19 22 35 0 14 8 32 19 41 32 27 13 53 -65 88 l-71 32 32 35 c28 33
30 38 17 57 -24 36 -48 31 -107 -21z"/>
<path d="M3703 888 c-22 -29 -85 -198 -79 -213 6 -17 53 -38 71 -32 6 3 30 53
55 112 l44 108 -23 18 c-27 22 -54 24 -68 7z"/>
<path d="M1455 838 c-33 -18 -45 -40 -44 -82 2 -68 12 -91 39 -91 24 0 25 2
22 57 -3 48 -1 59 14 65 20 8 44 -21 44 -53 0 -28 26 -55 45 -48 33 13 7 117
-36 148 -27 18 -55 20 -84 4z"/>
<path d="M53 800 c-13 -5 -23 -13 -23 -17 0 -4 16 -50 36 -100 37 -97 50 -108
88 -80 16 12 15 18 -15 97 -44 116 -45 116 -86 100z"/>
<path d="M3129 767 c-143 -41 -250 -166 -265 -314 -13 -121 50 -251 157 -322
72 -48 139 -65 233 -58 89 6 152 33 217 94 232 217 91 591 -231 609 -36 2 -86
-2 -111 -9z m42 -187 c23 -13 25 -52 4 -70 -8 -7 -25 -10 -39 -6 -33 8 -43 42
-20 67 20 22 28 23 55 9z m229 -90 c17 -33 -4 -62 -43 -58 -25 2 -33 8 -35 26
-6 37 5 52 37 52 20 0 34 -7 41 -20z m-183 -112 c100 -34 185 -68 188 -75 14
-39 -78 -108 -158 -119 -130 -18 -257 89 -257 217 0 53 6 53 227 -23z"/>
<path d="M555 747 c-113 -38 -199 -110 -243 -205 -24 -50 -27 -69 -27 -157 0
-90 3 -105 28 -153 38 -71 100 -132 173 -168 54 -26 68 -29 164 -29 99 0 110
2 171 32 80 40 150 111 187 191 22 47 27 71 27 142 0 76 -3 92 -32 151 -64
130 -176 201 -323 206 -52 2 -101 -2 -125 -10z m245 -238 c9 -16 8 -26 -5 -45
-19 -29 -46 -31 -70 -4 -15 17 -16 24 -7 45 15 32 66 35 82 4z m-242 -41 c36
-36 -11 -93 -57 -69 -39 21 -21 81 24 81 12 0 26 -5 33 -12z m193 -147 c39
-40 39 -82 0 -122 -41 -41 -91 -40 -133 1 -26 27 -30 36 -25 68 13 80 101 109
158 53z"/>
<path d="M2442 563 c-20 -18 -72 -161 -72 -199 0 -33 29 -51 135 -84 136 -42
144 -38 185 84 16 50 30 98 30 107 0 29 -36 50 -136 80 -114 34 -116 34 -142
12z m78 -63 c0 -23 -13 -32 -34 -24 -19 7 -21 40 -3 47 20 7 37 -4 37 -23z
m135 -45 c0 -30 -39 -27 -43 3 -3 20 0 23 20 20 15 -2 23 -10 23 -23z m-90
-40 c0 -30 -39 -27 -43 3 -3 20 0 23 20 20 15 -2 23 -10 23 -23z m-87 -43 c3
-16 -2 -22 -17 -22 -24 0 -35 15 -27 36 9 23 40 13 44 -14z m140 -40 c3 -18
-1 -22 -21 -22 -28 0 -41 22 -24 39 17 17 42 9 45 -17z"/>
<path d="M1675 537 c-210 -100 -217 -384 -13 -486 116 -59 239 -34 326 64 48
55 67 107 65 185 -1 68 -20 115 -69 170 -53 58 -105 82 -189 87 -59 3 -78 0
-120 -20z m175 -37 c85 -23 151 -113 151 -205 0 -128 -92 -225 -216 -225 -100
0 -194 75 -214 171 -36 167 113 305 279 259z"/>
<path d="M1834 440 c-12 -5 -29 -19 -38 -32 -49 -70 26 -154 109 -122 19 8 45
55 45 83 0 47 -70 90 -116 71z m64 -42 c19 -19 15 -66 -7 -78 -31 -16 -49 -12
-67 15 -15 23 -15 27 0 50 18 27 54 33 74 13z"/>
<path d="M1844 375 c-7 -18 3 -35 22 -35 20 0 30 30 13 41 -20 12 -29 11 -35
-6z"/>
<path d="M1632 353 c-23 -9 -44 -63 -37 -94 14 -62 101 -83 143 -34 46 54 13
136 -56 134 -20 0 -43 -3 -50 -6z m87 -55 c14 -24 14 -28 -3 -47 -35 -39 -86
-21 -86 29 0 55 62 68 89 18z"/>
<path d="M1655 290 c-9 -15 14 -40 31 -33 22 8 18 43 -5 43 -11 0 -23 -5 -26
-10z"/>
<path d="M1813 190 c-39 -18 -63 -35 -63 -45 0 -28 26 -27 99 6 51 23 71 37
71 50 0 27 -33 24 -107 -11z"/>
<path d="M1290 419 c-33 -29 -39 -30 -92 -25 -31 3 -59 2 -62 -2 -2 -4 6 -27
19 -52 l23 -44 -25 -39 c-35 -55 -27 -66 38 -56 53 8 54 8 91 -28 43 -42 53
-38 66 22 7 35 14 44 60 68 29 16 50 32 47 37 -3 5 -25 18 -49 29 -42 18 -44
22 -51 70 -4 28 -12 51 -18 51 -7 -1 -28 -15 -47 -31z"/>
<path d="M2270 410 c-19 -19 -20 -31 -18 -123 3 -97 4 -102 28 -114 14 -6 71
-13 128 -15 93 -3 105 -1 118 16 29 40 19 52 -70 80 -106 33 -130 58 -123 129
4 44 3 47 -19 47 -13 0 -33 -9 -44 -20z"/>
<path d="M3918 407 c-14 -13 -27 -29 -30 -37 -3 -10 -9 -10 -25 -1 -12 6 -37
11 -56 11 -42 0 -87 -46 -87 -88 0 -59 69 -128 178 -179 48 -23 55 -23 75 -10
37 24 90 140 95 207 4 55 2 61 -26 90 -38 38 -87 41 -124 7z m97 -29 c25 -19
27 -26 22 -70 -6 -50 -61 -166 -83 -175 -18 -7 -109 43 -154 84 -44 39 -53 82
-23 115 21 23 41 23 78 -2 42 -28 52 -25 65 15 19 56 51 68 95 33z"/>
</g>
</svg>
